<?xml version="1.0" encoding="utf-8"?>
<!-- Generator: Adobe Illustrator 21.1.0, SVG Export Plug-In . SVG Version: 6.00 Build 0)  -->
<svg version="1.1" id="Layer_1" xmlns="http://www.w3.org/2000/svg" xmlns:xlink="http://www.w3.org/1999/xlink" x="0px" y="0px"
	 viewBox="0 0 429.5 209.9" style="enable-background:new 0 0 429.5 209.9;" xml:space="preserve">
<style type="text/css">
	.st0{fill:url(#SVGID_1_);}
	.st1{fill:url(#SVGID_2_);}
	.st2{fill:url(#SVGID_3_);}
	.st3{fill:url(#SVGID_4_);}
	.st4{fill:url(#SVGID_5_);}
	.st5{fill:url(#SVGID_6_);}
	.st6{fill:url(#SVGID_7_);}
	.st7{fill:url(#SVGID_8_);}
</style>
<title>API PICKER۲</title>
<g id="qnHUiz.tif">
	
		<linearGradient id="SVGID_1_" gradientUnits="userSpaceOnUse" x1="16.49" y1="62.0066" x2="270.6401" y2="62.0066" gradientTransform="matrix(1 0 0 -1 -16.45 165.5526)">
		<stop  offset="0" style="stop-color:#00A79D"/>
		<stop  offset="2.000000e-02" style="stop-color:#04A7A4"/>
		<stop  offset="0.11" style="stop-color:#13A8BF"/>
		<stop  offset="0.2" style="stop-color:#1EA9D2"/>
		<stop  offset="0.29" style="stop-color:#25AADD"/>
		<stop  offset="0.39" style="stop-color:#27AAE1"/>
		<stop  offset="0.51" style="stop-color:#1B75BC"/>
		<stop  offset="0.89" style="stop-color:#2B3990"/>
		<stop  offset="1" style="stop-color:#262262"/>
	</linearGradient>
	<path class="st0" d="M66.5,131.9c9.9,0,19.3,0.1,28.7-0.1c3-0.1,4.5,1,5.6,3.8c1.8,4.7,4.1,9.1,6.1,13.7c1.5,3.4,2.7,6.9,4.2,10.9
		h-5.2l-49.2,0.1c-0.9,0.1-1.8,0.1-2.7,0.1c-3-0.3-4.4,0.9-5.7,3.7c-2.1,4.9-5,9.5-7.4,14.2c-2.7,5.2-5.3,10.5-8,15.7
		c-0.5,0.9-1.4,1.6-2.4,1.9c-10,0.1-19.9,0.1-30.3,0.1c0.2-0.9,0.4-1.8,0.7-2.6c5.2-9.9,10.4-19.9,15.6-29.8c3.6-7,7.1-14,10.8-20.9
		c3.3-6.4,6.9-12.6,10.2-19c2.6-5,4.9-10.2,7.5-15.2c4.6-8.8,9.3-17.6,13.9-26.4C63,74,67.1,65.8,71.4,57.7
		c3.8-7.3,7.7-14.5,11.5-21.7c1.8-3.6,3.4-7.2,5.2-10.8c2.2-4.4,4.6-8.7,7-12.9c0.5-0.7,1.3-1.1,2.2-1.2c20.4,0,40.9,0,61.3,0.2
		c7.1,0.1,14.4,0.3,21.4,1.8s13.3,4.4,19.9,6.9c2.7,0.9,5.3,2,7.8,3.4c3.7,2.3,7.2,4.7,10.6,7.4c2.8,2.2,5.4,4.8,8,7.3
		c4.9,4.4,9.1,9.5,12.4,15.1c2.8,5,5.7,9.9,8.2,15c1.1,2.5,2,5.1,2.6,7.8c1.1,3.9,2,7.8,2.9,11.7c1.8,7.6,2.1,15.5,1,23.2
		c-0.7,4.7-1,9.5-2.3,14.1c-1.6,5.8-3.6,11.5-6,17c-4.8,10.7-11.7,20.3-20.2,28.3c-7.4,7.1-15.7,13.3-25.4,17.2
		c-6.1,2.6-12.3,4.8-18.6,6.6c-4.1,1-8.3,1.5-12.5,1.5c-8.1,0.2-16.2,0.1-24.8,0.1c0.9-1.4,1.6-2.6,2.4-3.8
		c4.8-7.3,9.6-14.6,14.4-22c0.8-1.4,2.2-2.2,3.7-2.2c13.2-0.6,25.9-5.1,36.5-13.1c5-3.8,9.6-8.1,12.9-13.6c2.3-4,5.1-7.6,7-11.8
		c1.9-4.2,3.3-8.6,4.2-13.1c1-4.5,1.4-9.1,1.2-13.8c-0.2-5.9-1.2-11.8-2.8-17.4c-2.1-6.1-4.9-12-8.2-17.6c-2.1-3.6-4.7-6.8-7.9-9.5
		c-3.4-2.8-6.4-6.1-10.1-8.3c-3.3-2.1-6.9-3.8-10.5-5.2c-7.8-3-15.8-4.9-24.2-4.5c-5.6,0.2-11.2,0-16.8,0c-9.7,0-19.4,0-29.2,0
		c-2.1,0-3.5,0.2-4.7,2.7c-2.9,6.3-6.6,12.3-9.9,18.5c-3.8,7.2-7.6,14.4-11.3,21.6c-4.7,9-9.3,17.9-13.9,26.9
		c-3.2,6.2-6.4,12.3-9.4,18.6C66.4,129.1,66.6,130.4,66.5,131.9z"/>
</g>
<g id="D3yFIl.tif">
	<g>
		<linearGradient id="SVGID_2_" gradientUnits="userSpaceOnUse" x1="276.861" y1="179.2646" x2="241.9808" y2="159.1266">
			<stop  offset="0" style="stop-color:#00A79D"/>
			<stop  offset="2.000000e-02" style="stop-color:#04A7A4"/>
			<stop  offset="0.11" style="stop-color:#13A8BF"/>
			<stop  offset="0.2" style="stop-color:#1EA9D2"/>
			<stop  offset="0.29" style="stop-color:#25AADD"/>
			<stop  offset="0.39" style="stop-color:#27AAE1"/>
			<stop  offset="0.51" style="stop-color:#1B75BC"/>
			<stop  offset="0.89" style="stop-color:#2B3990"/>
			<stop  offset="1" style="stop-color:#262262"/>
		</linearGradient>
		<path class="st1" d="M248.3,192.6c-0.4-1.4-1-2.7-1-4.1c-0.1-12,0-24-0.2-36c0-3.3,0.9-4.6,4.3-4.4c6.8,0.2,13.6,0,20.4,0.1
			c5,0,7.6,2.5,7.7,7.6c0.1,5.5,0.1,10.9,0,16.4c-0.1,5.1-2.6,7.5-7.7,7.6c-5,0-9.9-0.1-14.9,0c-5,0.1-4.9,0.1-5,5
			c-0.1,2.6-0.4,5.3-0.6,7.9C250.2,192.6,249.2,192.6,248.3,192.6z M263.1,175.2c2.9,0,5.8-0.1,8.7,0c2.1,0,3.2-0.6,3.2-2.9
			c-0.1-5.6,0-11.1,0-16.7c0-2.1-1-3.1-3.1-3.1c-5.6,0-11.1,0-16.7,0c-2.2,0-3.3,0.9-3.3,3.2c0,5.2-0.1,10.4-0.2,15.6
			c0,2.6,0.8,4.1,3.8,3.9C258,175,260.5,175.2,263.1,175.2z"/>
		<linearGradient id="SVGID_3_" gradientUnits="userSpaceOnUse" x1="401.9611" y1="174.4576" x2="366.8808" y2="154.2039">
			<stop  offset="0" style="stop-color:#00A79D"/>
			<stop  offset="2.000000e-02" style="stop-color:#04A7A4"/>
			<stop  offset="0.11" style="stop-color:#13A8BF"/>
			<stop  offset="0.2" style="stop-color:#1EA9D2"/>
			<stop  offset="0.29" style="stop-color:#25AADD"/>
			<stop  offset="0.39" style="stop-color:#27AAE1"/>
			<stop  offset="0.51" style="stop-color:#1B75BC"/>
			<stop  offset="0.89" style="stop-color:#2B3990"/>
			<stop  offset="1" style="stop-color:#262262"/>
		</linearGradient>
		<path class="st2" d="M385.4,179.7c-3.5,0-7,0.1-10.5,0c-4.5-0.1-7.1-2.5-7.2-6.9c-0.1-5.9-0.1-11.9,0-17.8
			c0.1-4.5,2.6-6.8,7.1-6.9c5.9-0.1,11.9-0.1,17.8,0c4.4,0.1,7,2.7,7.1,7c0.1,2.5-0.1,5.1,0.1,7.6c0.2,2.6-0.9,3.4-3.4,3.4
			c-6.9-0.1-13.8,0.1-20.7-0.1c-3.3-0.1-3.8,1.5-3.7,4.2c0.1,2.7-0.2,5.1,3.8,5c6.5-0.2,13.1-0.1,19.6,0c1.8,0,4.3-0.8,4.3,2.3
			c0,2.9-2.4,2.1-4.1,2.2C392.2,179.8,388.8,179.8,385.4,179.7C385.4,179.7,385.4,179.7,385.4,179.7z M383.4,161.5
			c2.9,0,5.8-0.1,8.7,0c2.1,0.1,3.4-0.5,3.1-2.8c-0.3-2.3,1.3-5.8-2.6-6c-5.9-0.4-11.9-0.3-17.8,0c-4,0.2-2.4,3.7-2.7,5.9
			c-0.3,2.3,0.9,3,3,2.9C377.8,161.4,380.6,161.5,383.4,161.5z"/>
		<linearGradient id="SVGID_4_" gradientUnits="userSpaceOnUse" x1="365.5212" y1="173.6832" x2="326.3903" y2="151.0909">
			<stop  offset="0" style="stop-color:#00A79D"/>
			<stop  offset="2.000000e-02" style="stop-color:#04A7A4"/>
			<stop  offset="0.11" style="stop-color:#13A8BF"/>
			<stop  offset="0.2" style="stop-color:#1EA9D2"/>
			<stop  offset="0.29" style="stop-color:#25AADD"/>
			<stop  offset="0.39" style="stop-color:#27AAE1"/>
			<stop  offset="0.51" style="stop-color:#1B75BC"/>
			<stop  offset="0.89" style="stop-color:#2B3990"/>
			<stop  offset="1" style="stop-color:#262262"/>
		</linearGradient>
		<path class="st3" d="M362.7,178.5c-2.7,1.8-4.5,1.2-6.2-0.7c-3-3.3-6-6.6-9.1-9.9c-1.5-1.6-7.8-2.7-9.5-1.5
			c-0.6,0.5-0.9,1.6-0.9,2.5c-0.1,2.5,0.2,5.1-0.2,7.6c-0.1,1.1-1.3,2.1-2,3.1c-0.7-1-2-2-2-3c-0.2-12.1-0.2-24.2-0.1-36.4
			c0-0.9,1.4-1.7,2.1-2.6c0.7,0.9,2,1.8,2,2.7c0.2,5.8,0.2,11.6,0.1,17.5c-0.1,2.9,1,3.7,3.8,3.7c3.5,0.1,6.2-0.7,8.5-3.6
			c2.3-3,4.8-5.8,7.6-8.3c1.2-1.1,3.3-1.3,5-1.9c0.3,0.5,0.6,0.9,0.9,1.4c-2.3,2.7-4.5,5.4-6.9,8c-6,6.8-6.1,6.7,0,13.4
			C358,173.2,360.3,175.8,362.7,178.5z"/>
		<linearGradient id="SVGID_5_" gradientUnits="userSpaceOnUse" x1="329.1747" y1="173.9213" x2="294.192" y2="153.724">
			<stop  offset="0" style="stop-color:#00A79D"/>
			<stop  offset="2.000000e-02" style="stop-color:#04A7A4"/>
			<stop  offset="0.11" style="stop-color:#13A8BF"/>
			<stop  offset="0.2" style="stop-color:#1EA9D2"/>
			<stop  offset="0.29" style="stop-color:#25AADD"/>
			<stop  offset="0.39" style="stop-color:#27AAE1"/>
			<stop  offset="0.51" style="stop-color:#1B75BC"/>
			<stop  offset="0.89" style="stop-color:#2B3990"/>
			<stop  offset="1" style="stop-color:#262262"/>
		</linearGradient>
		<path class="st4" d="M312.7,148.1c3.8,0,7.5-0.1,11.3,0.1c0.9,0.1,1.7,1.4,2.6,2.1c-0.9,0.7-1.7,2.1-2.6,2.1
			c-6.8,0.2-13.6,0.2-20.4,0c-3.5-0.1-4.7,1.2-4.6,4.7c0.2,4.7,0.2,9.5-0.1,14.2c-0.1,3.1,1,4,4,4c6.8-0.2,13.6,0,20.3-0.1
			c1.7,0,3.3,0,3.3,2.3c0,2.3-1.6,2.3-3.3,2.3c-6.9,0-13.8,0.1-20.7,0c-5.8-0.1-8.1-2.6-8.1-8.3c0-5.2-0.1-10.4,0-15.6
			c0.1-5,2.7-7.6,7.6-7.7C305.7,148,309.2,148.1,312.7,148.1z"/>
		<linearGradient id="SVGID_6_" gradientUnits="userSpaceOnUse" x1="418.2479" y1="166.5916" x2="402.6947" y2="157.6119">
			<stop  offset="0" style="stop-color:#00A79D"/>
			<stop  offset="2.000000e-02" style="stop-color:#04A7A4"/>
			<stop  offset="0.11" style="stop-color:#13A8BF"/>
			<stop  offset="0.2" style="stop-color:#1EA9D2"/>
			<stop  offset="0.29" style="stop-color:#25AADD"/>
			<stop  offset="0.39" style="stop-color:#27AAE1"/>
			<stop  offset="0.51" style="stop-color:#1B75BC"/>
			<stop  offset="0.89" style="stop-color:#2B3990"/>
			<stop  offset="1" style="stop-color:#262262"/>
		</linearGradient>
		<path class="st5" d="M405.4,166c0-3.7-0.1-7.5,0-11.2c0.2-4.2,2.8-6.6,7-6.7c2.3-0.1,4.8-0.5,6.8,0.1c2.2,0.7,4.1,2.4,6,3.9
			c0.4,0.3,0.2,2.3-0.2,2.5c-0.8,0.4-2.5,0.5-2.9-0.1c-2.9-3.6-6.7-1.8-10.2-1.9c-0.7,0-2.1,2.2-2.1,3.4c-0.2,6.5-0.1,13.1-0.1,19.6
			c0,1.8,0.3,4.2-2.4,3.8c-0.9-0.1-1.9-2.4-2-3.7c-0.3-3.2-0.1-6.5-0.1-9.8C405.3,166,405.4,166,405.4,166z"/>
		<linearGradient id="SVGID_7_" gradientUnits="userSpaceOnUse" x1="292.8293" y1="168.1553" x2="278.172" y2="159.6929">
			<stop  offset="0" style="stop-color:#00A79D"/>
			<stop  offset="2.000000e-02" style="stop-color:#04A7A4"/>
			<stop  offset="0.11" style="stop-color:#13A8BF"/>
			<stop  offset="0.2" style="stop-color:#1EA9D2"/>
			<stop  offset="0.29" style="stop-color:#25AADD"/>
			<stop  offset="0.39" style="stop-color:#27AAE1"/>
			<stop  offset="0.51" style="stop-color:#1B75BC"/>
			<stop  offset="0.89" style="stop-color:#2B3990"/>
			<stop  offset="1" style="stop-color:#262262"/>
		</linearGradient>
		<path class="st6" d="M283.4,163.8c0-4.4-0.1-8.7,0.1-13.1c0-0.9,1.3-1.8,2-2.6c0.8,0.9,2.1,1.7,2.2,2.6c0.2,8.7,0.2,17.4,0,26.1
			c0,1-1.5,1.9-2.3,2.9c-0.7-1.1-1.9-2.1-2-3.2C283.2,172.3,283.3,168,283.4,163.8C283.3,163.8,283.4,163.8,283.4,163.8z"/>
		<linearGradient id="SVGID_8_" gradientUnits="userSpaceOnUse" x1="287.4851" y1="140.4642" x2="284.0995" y2="138.5096">
			<stop  offset="0" style="stop-color:#00A79D"/>
			<stop  offset="2.000000e-02" style="stop-color:#04A7A4"/>
			<stop  offset="0.11" style="stop-color:#13A8BF"/>
			<stop  offset="0.2" style="stop-color:#1EA9D2"/>
			<stop  offset="0.29" style="stop-color:#25AADD"/>
			<stop  offset="0.39" style="stop-color:#27AAE1"/>
			<stop  offset="0.51" style="stop-color:#1B75BC"/>
			<stop  offset="0.89" style="stop-color:#2B3990"/>
			<stop  offset="1" style="stop-color:#262262"/>
		</linearGradient>
		<path class="st7" d="M285.5,136.7c1.1,1.6,2.1,2.5,2.1,3.3c0,0.7-1.3,2.1-1.8,2c-0.9-0.2-2.1-1.1-2.3-1.9
			C283.3,139.3,284.4,138.3,285.5,136.7z"/>
	</g>
</g>
</svg>
