<svg xmlns="http://www.w3.org/2000/svg" width="300" height="300" viewBox="0 0 300 300">
  <defs>
    <style>
      .a {
        opacity: 0.4;
      }

      .b, .d, .e {
        fill: none;
      }

      .b, .c, .d, .e {
        stroke: #4a494d;
        stroke-miterlimit: 10;
      }

      .c {
        fill: #fff;
      }

      .d, .e {
        stroke-linecap: round;
      }

      .e {
        stroke-width: 1.25px;
      }

      .f {
        fill: #4a494d;
      }
    </style>
  </defs>
  <title>SW</title>
  <g>
    <g class="a">
      <polyline class="b" points="150.189 171.257 150.189 238.766 74.378 197.39 74.378 161.82"/>
      <polygon class="b" points="129.716 71.777 52.851 113.659 74.453 130.533 150.092 87.424 129.716 71.777"/>
      <polygon class="b" points="128.82 185.953 51.612 144.396 74.284 130.575 150.062 170.773 128.82 185.953"/>
      <polyline class="b" points="150.192 238.766 226.003 197.39 226.003 161.82"/>
      <polygon class="b" points="171.18 185.953 248.388 144.396 225.716 130.575 149.938 170.773 171.18 185.953"/>
      <polygon class="b" points="170.213 71.723 247.088 113.587 225.491 130.466 149.841 87.375 170.213 71.723"/>
    </g>
    <g>
      <g>
        <path class="c" d="M91.594,134.4V61.751c0-5.759,4.954-10.471,11.01-10.471h95.678c6.055,0,11.009,4.712,11.009,10.471l-.041,71.63"/>
        <line class="b" x1="91.72" y1="77.889" x2="209.291" y2="77.889"/>
      </g>
      <g class="a">
        <g>
          <line class="d" x1="123.817" y1="88.314" x2="143.226" y2="88.314"/>
          <line class="d" x1="148.054" y1="88.314" x2="173.754" y2="88.314"/>
          <line class="d" x1="183.845" y1="96.7" x2="140.276" y2="96.7"/>
          <line class="d" x1="135.448" y1="96.7" x2="120.964" y2="96.7"/>
          <line class="d" x1="166.414" y1="105.069" x2="120.766" y2="105.069"/>
          <line class="d" x1="133.209" y1="116.082" x2="151.141" y2="116.082"/>
          <line class="d" x1="156.364" y1="116.082" x2="173.295" y2="116.082"/>
          <line class="d" x1="162.744" y1="124.67" x2="120.826" y2="124.67"/>
        </g>
      </g>
      <g>
        <line class="e" x1="111.584" y1="88.314" x2="118.778" y2="88.314"/>
        <line class="e" x1="111.191" y1="116.082" x2="128.024" y2="116.082"/>
        <line class="e" x1="110.67" y1="138.978" x2="118.596" y2="138.978"/>
        <g>
          <path class="f" d="M111.7,67.675a2.607,2.607,0,0,1-1.091,2.23,4.908,4.908,0,0,1-2.96.8,7.754,7.754,0,0,1-3.117-.5V68.994a8.829,8.829,0,0,0,3.163.607,3.439,3.439,0,0,0,2-.477,1.546,1.546,0,0,0,.67-1.331,1.635,1.635,0,0,0-.238-.922,2.162,2.162,0,0,0-.794-.663,11.334,11.334,0,0,0-1.7-.689,5.476,5.476,0,0,1-2.271-1.283,2.744,2.744,0,0,1-.682-1.934,2.363,2.363,0,0,1,.99-1.993,4.259,4.259,0,0,1,2.618-.741,8.064,8.064,0,0,1,3.124.593l-.413,1.1a7.378,7.378,0,0,0-2.743-.563,2.759,2.759,0,0,0-1.644.43,1.394,1.394,0,0,0-.591,1.193,1.761,1.761,0,0,0,.217.923,2.028,2.028,0,0,0,.737.659,9.391,9.391,0,0,0,1.585.663,6.362,6.362,0,0,1,2.466,1.305A2.492,2.492,0,0,1,111.7,67.675Z"/>
          <path class="f" d="M123.916,65.037a5.315,5.315,0,0,1-1.531,4.1,6.248,6.248,0,0,1-4.405,1.419h-3.156V59.724h3.491a5.747,5.747,0,0,1,4.128,1.4A5.142,5.142,0,0,1,123.916,65.037Zm-1.4.044a4.233,4.233,0,0,0-1.118-3.194,4.624,4.624,0,0,0-3.323-1.074h-1.924v8.655h1.612a5.064,5.064,0,0,0,3.561-1.108A4.262,4.262,0,0,0,122.514,65.081Z"/>
          <path class="f" d="M135.481,70.557h-1.559L129.77,65.3l-1.192,1.008v4.246h-1.325V59.724h1.325V65.1l5.165-5.372h1.566l-4.581,4.705Z"/>
        </g>
      </g>
    </g>
    <g class="a">
      <g>
        <line class="d" x1="123.817" y1="138.854" x2="143.226" y2="138.854"/>
        <line class="d" x1="148.054" y1="138.854" x2="173.754" y2="138.854"/>
        <line class="d" x1="183.845" y1="147.24" x2="140.276" y2="147.24"/>
        <line class="d" x1="135.448" y1="147.24" x2="120.964" y2="147.24"/>
        <line class="d" x1="166.414" y1="155.608" x2="131.17" y2="155.608"/>
        <line class="d" x1="146.59" y1="164.482" x2="151.278" y2="164.482"/>
      </g>
    </g>
  </g>
</svg>
