<svg xmlns="http://www.w3.org/2000/svg" width="350" height="300" viewBox="0 0 350 300">
  <defs>
    <style>
      .a, .c, .d, .f, .g, .i, .j, .l {
        fill: none;
      }

      .a, .c, .d, .f, .g, .h, .i, .j, .l {
        stroke: #4a494d;
        stroke-miterlimit: 10;
      }

      .a, .c, .d, .f, .g, .j, .l {
        stroke-linecap: round;
      }

      .a, .f, .g {
        stroke-width: 1.5px;
      }

      .a, .f {
        stroke-dasharray: 0 4;
      }

      .a, .j, .k {
        opacity: 0.5;
      }

      .b, .f {
        opacity: 0.4;
      }

      .d {
        stroke-width: 0.75px;
      }

      .e {
        fill: #4a494d;
      }

      .h {
        fill: #fff;
      }

      .j, .l {
        stroke-width: 1.25px;
      }
    </style>
  </defs>
  <title>SW</title>
  <g>
    <g>
      <path class="a" d="M221.882,178.886a11.1,11.1,0,0,1-11.1,11.093H114.348a11.135,11.135,0,0,1-11.1-11.1V107.034a11.135,11.135,0,0,1,11.1-11.1h96.494a11.135,11.135,0,0,1,11.1,11.1Z"/>
      <line class="a" x1="110.011" y1="127.146" x2="217.19" y2="127.146"/>
    </g>
    <g class="b">
      <g>
        <line class="c" x1="135.742" y1="136.199" x2="155.317" y2="136.199"/>
        <line class="c" x1="160.186" y1="136.199" x2="186.105" y2="136.199"/>
        <line class="c" x1="196.283" y1="145.092" x2="152.341" y2="145.092"/>
        <line class="c" x1="147.472" y1="145.092" x2="132.865" y2="145.092"/>
        <line class="c" x1="178.703" y1="153.299" x2="137.876" y2="153.299"/>
        <line class="c" x1="146.909" y1="165.644" x2="163.299" y2="165.644"/>
        <line class="c" x1="168.567" y1="165.644" x2="185.642" y2="165.644"/>
        <line class="c" x1="175.002" y1="174.75" x2="146.909" y2="174.75"/>
      </g>
    </g>
    <g>
      <line class="c" x1="122.589" y1="136.199" x2="130.66" y2="136.199"/>
      <line class="d" x1="123.009" y1="165.644" x2="136.748" y2="165.644"/>
      <g>
        <path class="e" d="M125.7,118.368l-3.65-9.538h-.059q.1,1.134.1,2.694v6.844H120.94v-10.76h1.885l3.407,8.876h.059l3.436-8.876h1.87v10.76h-1.251v-6.933q0-1.192.1-2.591h-.059l-3.68,9.524Z"/>
        <path class="e" d="M142.079,114.328a4.454,4.454,0,0,1-.993,3.08,3.5,3.5,0,0,1-2.745,1.107,3.641,3.641,0,0,1-1.921-.508,3.348,3.348,0,0,1-1.295-1.457,5.078,5.078,0,0,1-.457-2.222,4.44,4.44,0,0,1,.987-3.073,3.483,3.483,0,0,1,2.737-1.1,3.411,3.411,0,0,1,2.69,1.126A4.428,4.428,0,0,1,142.079,114.328Zm-6.145,0a3.819,3.819,0,0,0,.619,2.354,2.453,2.453,0,0,0,3.639,0,3.811,3.811,0,0,0,.621-2.358,3.751,3.751,0,0,0-.621-2.337,2.188,2.188,0,0,0-1.837-.8,2.152,2.152,0,0,0-1.81.788A3.793,3.793,0,0,0,135.934,114.328Z"/>
        <path class="e" d="M148.2,118.515a3.442,3.442,0,0,1-2.712-1.078,4.437,4.437,0,0,1-.96-3.051,4.575,4.575,0,0,1,.975-3.128,3.513,3.513,0,0,1,2.778-1.1,5.535,5.535,0,0,1,1.163.125,3.844,3.844,0,0,1,.912.294l-.375,1.038a5.834,5.834,0,0,0-.883-.269,3.947,3.947,0,0,0-.846-.106q-2.459,0-2.458,3.135a3.736,3.736,0,0,0,.6,2.281,2.088,2.088,0,0,0,1.778.795,5.428,5.428,0,0,0,2.068-.435V118.1A4.394,4.394,0,0,1,148.2,118.515Z"/>
        <path class="e" d="M154.11,114.239a14.3,14.3,0,0,1,.965-1.177l2.605-2.76h1.45l-3.268,3.437,3.5,4.629h-1.48l-2.848-3.813-.92.795v3.018H152.9V106.917h1.206v6.071q0,.405-.058,1.251Z"/>
        <path class="e" d="M168.437,118.28a1.3,1.3,0,0,0,.431,1.089,2.079,2.079,0,0,0,1.262.353v1.031a3.392,3.392,0,0,1-2.163-.641,2.142,2.142,0,0,1-.766-1.759v-2.229a1.246,1.246,0,0,0-.463-1.094,2.329,2.329,0,0,0-1.348-.327v-1.038a2.3,2.3,0,0,0,1.384-.353,1.25,1.25,0,0,0,.427-1.045v-2.252a2.141,2.141,0,0,1,.8-1.774,3.329,3.329,0,0,1,2.134-.633v1.023q-1.692.045-1.693,1.465v2.171a1.742,1.742,0,0,1-1.641,1.869v.088a1.743,1.743,0,0,1,1.641,1.869Z"/>
        <path class="e" d="M180.4,118.368l-1.34-3.422H174.75l-1.324,3.422H172.16l4.254-10.8h1.052l4.232,10.8Zm-1.73-4.548-1.251-3.334q-.243-.633-.5-1.553a14.2,14.2,0,0,1-.464,1.553l-1.266,3.334Z"/>
        <path class="e" d="M190.752,110.744a3.01,3.01,0,0,1-1.114,2.512,5.049,5.049,0,0,1-3.191.88h-1.265v4.232H183.93v-10.76h2.79Q190.752,107.608,190.752,110.744Zm-5.57,2.318h1.125a4.187,4.187,0,0,0,2.407-.538,1.979,1.979,0,0,0,.743-1.722,1.855,1.855,0,0,0-.7-1.589,3.655,3.655,0,0,0-2.179-.523h-1.4Z"/>
        <path class="e" d="M193.758,118.368v-10.76h1.251v10.76Z"/>
        <path class="e" d="M201.83,114.136a1.742,1.742,0,0,1-1.641-1.869V110.1q0-1.421-1.671-1.465v-1.023a3.253,3.253,0,0,1,2.131.641,2.164,2.164,0,0,1,.776,1.766v2.252a1.243,1.243,0,0,0,.434,1.049,2.358,2.358,0,0,0,1.391.349V114.7a2.353,2.353,0,0,0-1.361.327,1.244,1.244,0,0,0-.464,1.094v2.229a2.158,2.158,0,0,1-.754,1.755,3.331,3.331,0,0,1-2.153.645v-1.031a2.035,2.035,0,0,0,1.244-.353,1.309,1.309,0,0,0,.427-1.089v-2.187a1.837,1.837,0,0,1,.4-1.28,2.134,2.134,0,0,1,1.237-.589Z"/>
      </g>
    </g>
  </g>
  <path class="f" d="M330.272,123.961A29.123,29.123,0,0,1,307.1,135.413c-2.373,0-75.4.6-75.4.6"/>
  <path class="f" d="M143.92,83.011a37.275,37.275,0,0,1,53.313-18.583,48.809,48.809,0,0,1,93.258,16.934A29.182,29.182,0,0,1,333.643,94.22"/>
  <polyline class="g" points="244.182 109.53 248.352 113.7 257.566 104.486"/>
  <polyline class="g" points="244.182 152.997 248.352 157.166 257.566 147.952"/>
  <polyline class="g" points="244.182 199.358 248.352 203.528 257.566 194.314"/>
  <g>
    <path class="e" d="M281.324,108.278a5.9,5.9,0,0,1-1.572,4.427,6.222,6.222,0,0,1-4.522,1.531h-3.239V102.545h3.583a5.247,5.247,0,0,1,5.75,5.733Zm-1.44.048a4.7,4.7,0,0,0-1.147-3.446,4.6,4.6,0,0,0-3.411-1.161H273.35v9.341h1.656a5.034,5.034,0,0,0,3.655-1.2A4.737,4.737,0,0,0,279.884,108.326Z"/>
    <path class="e" d="M288.253,114.4a4.026,4.026,0,0,1-3.067-1.183,4.581,4.581,0,0,1-1.124-3.288,5.081,5.081,0,0,1,1.044-3.367,3.469,3.469,0,0,1,2.8-1.247,3.3,3.3,0,0,1,2.607,1.084,4.15,4.15,0,0,1,.959,2.859v.839h-6.037a3.467,3.467,0,0,0,.779,2.343,2.7,2.7,0,0,0,2.084.8,7.045,7.045,0,0,0,2.8-.592v1.184a7,7,0,0,1-1.331.436A7.477,7.477,0,0,1,288.253,114.4Zm-.36-7.974a2.169,2.169,0,0,0-1.684.689,3.168,3.168,0,0,0-.739,1.9h4.582a2.923,2.923,0,0,0-.56-1.924A1.97,1.97,0,0,0,287.893,106.422Z"/>
    <path class="e" d="M296.476,114.236l-3.326-8.765h1.423l1.888,5.2a24.209,24.209,0,0,1,.751,2.367h.064a17.954,17.954,0,0,1,.556-1.756q.468-1.332,2.1-5.81h1.423l-3.327,8.765Z"/>
    <path class="e" d="M307.284,114.4a4.026,4.026,0,0,1-3.067-1.183,4.586,4.586,0,0,1-1.124-3.288,5.081,5.081,0,0,1,1.044-3.367,3.469,3.469,0,0,1,2.8-1.247,3.3,3.3,0,0,1,2.607,1.084,4.151,4.151,0,0,1,.96,2.859v.839h-6.038a3.467,3.467,0,0,0,.779,2.343,2.7,2.7,0,0,0,2.084.8,7.053,7.053,0,0,0,2.8-.592v1.184a7.012,7.012,0,0,1-1.332.436A7.47,7.47,0,0,1,307.284,114.4Zm-.36-7.974a2.165,2.165,0,0,0-1.683.689,3.168,3.168,0,0,0-.74,1.9h4.582a2.923,2.923,0,0,0-.56-1.924A1.97,1.97,0,0,0,306.924,106.422Z"/>
    <path class="e" d="M314.916,114.236h-1.327V101.793h1.327Z"/>
    <path class="e" d="M326.116,109.845a4.834,4.834,0,0,1-1.08,3.347,3.8,3.8,0,0,1-2.983,1.2,3.949,3.949,0,0,1-2.087-.552,3.64,3.64,0,0,1-1.408-1.584,5.521,5.521,0,0,1-.5-2.415,4.832,4.832,0,0,1,1.072-3.339,3.794,3.794,0,0,1,2.975-1.195,3.708,3.708,0,0,1,2.923,1.224A4.814,4.814,0,0,1,326.116,109.845Zm-6.678,0a4.162,4.162,0,0,0,.672,2.56,2.665,2.665,0,0,0,3.954,0,4.139,4.139,0,0,0,.676-2.564,4.07,4.07,0,0,0-.676-2.539,2.374,2.374,0,0,0-2-.867,2.334,2.334,0,0,0-1.967.856A4.111,4.111,0,0,0,319.438,109.845Z"/>
    <path class="e" d="M333.34,114.4a3.787,3.787,0,0,1-1.563-.316,2.931,2.931,0,0,1-1.188-.972h-.095a11.945,11.945,0,0,1,.095,1.456v3.607h-1.327v-12.7h1.08l.183,1.2h.064a3.088,3.088,0,0,1,1.192-1.04,3.625,3.625,0,0,1,1.559-.32,3.242,3.242,0,0,1,2.692,1.192,6.347,6.347,0,0,1-.017,6.7A3.244,3.244,0,0,1,333.34,114.4Zm-.192-7.957a2.355,2.355,0,0,0-1.943.743,3.835,3.835,0,0,0-.616,2.367v.3a4.391,4.391,0,0,0,.616,2.644,2.345,2.345,0,0,0,1.976.8,2.055,2.055,0,0,0,1.779-.92,4.362,4.362,0,0,0,.643-2.535,4.2,4.2,0,0,0-.643-2.516A2.119,2.119,0,0,0,333.148,106.439Z"/>
  </g>
  <g>
    <path class="e" d="M271.991,157.852V146.161h1.359v11.691Z"/>
    <path class="e" d="M280.007,156.917a4.41,4.41,0,0,0,.68-.052,4.291,4.291,0,0,0,.52-.109v1.016a2.428,2.428,0,0,1-.636.172,4.816,4.816,0,0,1-.756.068q-2.542,0-2.543-2.679v-5.214h-1.255v-.64l1.255-.552.56-1.871h.768v2.032h2.543v1.031H278.6v5.158a1.772,1.772,0,0,0,.376,1.216A1.308,1.308,0,0,0,280.007,156.917Z"/>
    <path class="e" d="M287.48,158.012a4.026,4.026,0,0,1-3.067-1.183,4.583,4.583,0,0,1-1.124-3.287,5.089,5.089,0,0,1,1.044-3.368,3.469,3.469,0,0,1,2.8-1.247,3.31,3.31,0,0,1,2.608,1.084,4.155,4.155,0,0,1,.959,2.859v.84h-6.038a3.471,3.471,0,0,0,.78,2.342,2.694,2.694,0,0,0,2.083.8,7.049,7.049,0,0,0,2.8-.592v1.184a6.919,6.919,0,0,1-1.332.436A7.47,7.47,0,0,1,287.48,158.012Zm-.36-7.973a2.164,2.164,0,0,0-1.683.688,3.168,3.168,0,0,0-.74,1.9h4.583a2.921,2.921,0,0,0-.56-1.923A1.969,1.969,0,0,0,287.12,150.039Z"/>
    <path class="e" d="M297.784,148.927a5.259,5.259,0,0,1,1.047.1l-.184,1.232a4.45,4.45,0,0,0-.96-.12,2.332,2.332,0,0,0-1.819.864,3.149,3.149,0,0,0-.756,2.151v4.7h-1.327v-8.764h1.095l.153,1.623h.064a3.838,3.838,0,0,1,1.175-1.32A2.647,2.647,0,0,1,297.784,148.927Z"/>
    <path class="e" d="M306.679,157.852l-.264-1.247h-.064a3.683,3.683,0,0,1-1.307,1.115,3.981,3.981,0,0,1-1.628.292,2.926,2.926,0,0,1-2.043-.672,2.45,2.45,0,0,1-.739-1.911q0-2.655,4.246-2.783l1.488-.048v-.544a2.222,2.222,0,0,0-.444-1.523,1.826,1.826,0,0,0-1.42-.492,5.782,5.782,0,0,0-2.479.672l-.408-1.016a6.307,6.307,0,0,1,1.419-.552,6.169,6.169,0,0,1,1.548-.2,3.338,3.338,0,0,1,2.323.7,2.9,2.9,0,0,1,.756,2.232v5.981Zm-3-.935a2.7,2.7,0,0,0,1.947-.68,2.517,2.517,0,0,0,.707-1.9v-.792l-1.327.055a4.848,4.848,0,0,0-2.284.492,1.485,1.485,0,0,0-.7,1.356,1.369,1.369,0,0,0,.436,1.1A1.806,1.806,0,0,0,303.681,156.917Z"/>
    <path class="e" d="M314.048,156.917a4.42,4.42,0,0,0,.68-.052,4.269,4.269,0,0,0,.519-.109v1.016a2.43,2.43,0,0,1-.635.172,4.816,4.816,0,0,1-.756.068q-2.543,0-2.543-2.679v-5.214h-1.256v-.64l1.256-.552.56-1.871h.767v2.032h2.543v1.031H312.64v5.158a1.772,1.772,0,0,0,.376,1.216A1.312,1.312,0,0,0,314.048,156.917Z"/>
    <path class="e" d="M321.521,158.012a4.026,4.026,0,0,1-3.067-1.183,4.579,4.579,0,0,1-1.124-3.287,5.084,5.084,0,0,1,1.044-3.368,3.469,3.469,0,0,1,2.8-1.247,3.308,3.308,0,0,1,2.607,1.084,4.151,4.151,0,0,1,.96,2.859v.84h-6.038a3.466,3.466,0,0,0,.779,2.342,2.7,2.7,0,0,0,2.084.8,7.053,7.053,0,0,0,2.8-.592v1.184a6.964,6.964,0,0,1-1.332.436A7.47,7.47,0,0,1,321.521,158.012Zm-.36-7.973a2.168,2.168,0,0,0-1.684.688,3.168,3.168,0,0,0-.739,1.9h4.582a2.921,2.921,0,0,0-.56-1.923A1.967,1.967,0,0,0,321.161,150.039Z"/>
  </g>
  <g>
    <path class="e" d="M275.59,203.271h-1.36V192.787h-3.7V191.58h8.764v1.207h-3.7Z"/>
    <path class="e" d="M285.374,203.431a4.026,4.026,0,0,1-3.067-1.183,4.579,4.579,0,0,1-1.124-3.287,5.082,5.082,0,0,1,1.044-3.368,3.469,3.469,0,0,1,2.8-1.247,3.308,3.308,0,0,1,2.607,1.084,4.151,4.151,0,0,1,.96,2.859v.84h-6.038a3.466,3.466,0,0,0,.779,2.342,2.7,2.7,0,0,0,2.084.8,7.053,7.053,0,0,0,2.8-.592v1.184a6.964,6.964,0,0,1-1.332.436A7.47,7.47,0,0,1,285.374,203.431Zm-.36-7.973a2.168,2.168,0,0,0-1.684.688,3.168,3.168,0,0,0-.739,1.9h4.582a2.921,2.921,0,0,0-.56-1.923A1.967,1.967,0,0,0,285.014,195.458Z"/>
    <path class="e" d="M297.332,200.88a2.193,2.193,0,0,1-.911,1.887,4.283,4.283,0,0,1-2.559.664,5.579,5.579,0,0,1-2.72-.551v-1.232a6.624,6.624,0,0,0,1.356.5,5.689,5.689,0,0,0,1.395.184,3.167,3.167,0,0,0,1.6-.332,1.143,1.143,0,0,0,.116-1.888,7.057,7.057,0,0,0-1.731-.86,9.382,9.382,0,0,1-1.74-.795,2.38,2.38,0,0,1-.768-.772,2.022,2.022,0,0,1-.251-1.031,1.968,1.968,0,0,1,.871-1.692,4.064,4.064,0,0,1,2.391-.62,7.01,7.01,0,0,1,2.767.576l-.471,1.08a6.345,6.345,0,0,0-2.391-.544,2.744,2.744,0,0,0-1.424.3.915.915,0,0,0-.48.816,1,1,0,0,0,.18.6,1.772,1.772,0,0,0,.58.471,12.917,12.917,0,0,0,1.535.648,5.75,5.75,0,0,1,2.108,1.143A2.017,2.017,0,0,1,297.332,200.88Z"/>
    <path class="e" d="M303.141,202.336a4.433,4.433,0,0,0,.681-.052,4.311,4.311,0,0,0,.519-.109v1.016a2.428,2.428,0,0,1-.636.172,4.794,4.794,0,0,1-.755.068q-2.544,0-2.543-2.679v-5.214h-1.256v-.64l1.256-.552.56-1.871h.767v2.031h2.543v1.032h-2.543V200.7a1.772,1.772,0,0,0,.376,1.216A1.309,1.309,0,0,0,303.141,202.336Z"/>
  </g>
  <g>
    <g>
      <path class="h" d="M155.012,252.049a12.76,12.76,0,0,1-12.76,12.749H31.425a12.8,12.8,0,0,1-12.76-12.761V170.62a12.8,12.8,0,0,1,12.76-12.761h110.9a12.8,12.8,0,0,1,12.76,12.761Z"/>
      <line class="i" x1="18.81" y1="190.286" x2="155.085" y2="190.286"/>
    </g>
    <g class="b">
      <g>
        <line class="c" x1="56.014" y1="204.23" x2="78.51" y2="204.23"/>
        <line class="c" x1="84.106" y1="204.23" x2="113.895" y2="204.23"/>
        <line class="c" x1="125.592" y1="214.45" x2="75.091" y2="214.45"/>
        <line class="c" x1="69.495" y1="214.45" x2="52.707" y2="214.45"/>
        <line class="c" x1="105.387" y1="224.648" x2="52.477" y2="224.648"/>
        <line class="c" x1="63.18" y1="238.07" x2="87.684" y2="238.07"/>
        <line class="c" x1="93.739" y1="238.07" x2="113.363" y2="238.07"/>
        <line class="c" x1="101.134" y1="248.535" x2="52.546" y2="248.535"/>
      </g>
    </g>
    <line class="c" x1="41.834" y1="204.23" x2="50.173" y2="204.23"/>
    <line class="c" x1="41.379" y1="238.07" x2="57.17" y2="238.07"/>
    <g>
      <path class="e" d="M36.99,181.245a1.6,1.6,0,0,0,.528,1.337,2.544,2.544,0,0,0,1.549.432v1.265a4.167,4.167,0,0,1-2.655-.785,2.634,2.634,0,0,1-.939-2.158V178.6a1.528,1.528,0,0,0-.569-1.341,2.849,2.849,0,0,0-1.653-.4v-1.273a2.818,2.818,0,0,0,1.7-.434,1.536,1.536,0,0,0,.524-1.282V171.1a2.628,2.628,0,0,1,.975-2.177,4.09,4.09,0,0,1,2.619-.776v1.255q-2.077.054-2.077,1.8v2.663a2.138,2.138,0,0,1-2.014,2.294v.108a2.138,2.138,0,0,1,2.014,2.294Z"/>
      <path class="e" d="M50.746,181.353l-1.643-4.2H43.811l-1.625,4.2H40.633L45.852,168.1h1.291l5.193,13.256Zm-2.122-5.581-1.535-4.09q-.3-.775-.614-1.905a17.015,17.015,0,0,1-.569,1.905l-1.553,4.09Z"/>
      <path class="e" d="M63.446,172a3.7,3.7,0,0,1-1.368,3.084,6.2,6.2,0,0,1-3.915,1.079H56.61v5.192H55.075v-13.2H58.5Q63.447,168.151,63.446,172Zm-6.836,2.844h1.382a5.132,5.132,0,0,0,2.953-.659,2.428,2.428,0,0,0,.912-2.113A2.276,2.276,0,0,0,61,170.12a4.478,4.478,0,0,0-2.673-.642H56.61Z"/>
      <path class="e" d="M67.134,181.353v-13.2h1.535v13.2Z"/>
      <path class="e" d="M76.114,176.161a2.138,2.138,0,0,1-2.014-2.294V171.2q0-1.743-2.049-1.8v-1.255a3.984,3.984,0,0,1,2.613.786,2.655,2.655,0,0,1,.954,2.167v2.763a1.523,1.523,0,0,0,.532,1.287,2.887,2.887,0,0,0,1.707.429v1.273a2.886,2.886,0,0,0-1.671.4,1.527,1.527,0,0,0-.568,1.341v2.737a2.652,2.652,0,0,1-.926,2.153,4.086,4.086,0,0,1-2.641.79v-1.265a2.49,2.49,0,0,0,1.526-.432,1.606,1.606,0,0,0,.523-1.337v-2.682a2.247,2.247,0,0,1,.5-1.571,2.6,2.6,0,0,1,1.517-.723Z"/>
    </g>
  </g>
  <path class="j" d="M46.788,152.38a37.4,37.4,0,0,1,37.4-37.4h10.9"/>
  <g class="k">
    <polyline class="l" points="91.578 119.09 95.758 114.976 91.74 110.827"/>
  </g>
</svg>
