<svg xmlns="http://www.w3.org/2000/svg" width="300" height="300" viewBox="0 0 300 300">
  <defs>
    <style>
      .a {
        opacity: 0.4;
      }

      .b, .d {
        fill: none;
      }

      .b, .c, .d {
        stroke: #4a494d;
        stroke-miterlimit: 10;
      }

      .c {
        fill: #fff;
      }

      .d {
        stroke-linecap: round;
      }

      .e {
        fill: #4a494d;
      }
    </style>
  </defs>
  <title>SW</title>
  <g>
    <g class="a">
      <path class="b" d="M181.467,211.943V120.43a6.87,6.87,0,0,0-13.74,0v91.513a6.87,6.87,0,1,1,6.87,6.871H29.377a6.871,6.871,0,1,1,6.87-6.871V120.43a6.871,6.871,0,0,0-13.741,0v91.513"/>
      <line class="b" x1="40.369" y1="123.407" x2="84.399" y2="123.407"/>
      <line class="b" x1="114.909" y1="123.407" x2="158.939" y2="123.407"/>
    </g>
    <polygon class="b" points="51.637 163.624 51.637 203.241 104.078 203.241 51.637 163.624"/>
    <g>
      <g>
        <path class="c" d="M277.425,168.98a11.894,11.894,0,0,1-11.894,11.883h-103.3a11.929,11.929,0,0,1-11.894-11.894V93.081a11.93,11.93,0,0,1,11.894-11.895H265.6a11.93,11.93,0,0,1,11.9,11.895Z"/>
        <line class="b" x1="150.473" y1="111.411" x2="277.494" y2="111.411"/>
      </g>
      <g class="a">
        <g>
          <line class="d" x1="185.15" y1="124.408" x2="206.119" y2="124.408"/>
          <line class="d" x1="211.335" y1="124.408" x2="239.1" y2="124.408"/>
          <line class="d" x1="250.003" y1="133.934" x2="202.931" y2="133.934"/>
          <line class="d" x1="197.715" y1="133.934" x2="182.068" y2="133.934"/>
          <line class="d" x1="231.171" y1="143.44" x2="181.854" y2="143.44"/>
          <line class="d" x1="191.83" y1="155.95" x2="214.67" y2="155.95"/>
          <line class="d" x1="220.313" y1="155.95" x2="238.604" y2="155.95"/>
          <line class="d" x1="227.206" y1="165.705" x2="181.918" y2="165.705"/>
        </g>
      </g>
      <line class="d" x1="171.933" y1="124.408" x2="179.706" y2="124.408"/>
      <line class="d" x1="171.51" y1="155.95" x2="186.227" y2="155.95"/>
      <g>
        <path class="e" d="M167.417,102.982a1.489,1.489,0,0,0,.493,1.246,2.368,2.368,0,0,0,1.443.4v1.178a3.876,3.876,0,0,1-2.474-.732,2.45,2.45,0,0,1-.876-2.011v-2.551a1.42,1.42,0,0,0-.53-1.249,2.652,2.652,0,0,0-1.54-.375V97.705a2.625,2.625,0,0,0,1.582-.4,1.431,1.431,0,0,0,.488-1.2V93.53a2.446,2.446,0,0,1,.91-2.028,3.8,3.8,0,0,1,2.44-.724v1.17q-1.936.05-1.936,1.675v2.483a1.993,1.993,0,0,1-1.876,2.138v.1a1.992,1.992,0,0,1,1.876,2.138Z"/>
        <path class="e" d="M180.24,103.083l-1.532-3.914h-4.932l-1.515,3.914h-1.448l4.865-12.356h1.2l4.84,12.356Zm-1.978-5.2-1.431-3.813q-.278-.725-.572-1.776a16.12,16.12,0,0,1-.531,1.776l-1.447,3.813Z"/>
        <path class="e" d="M192.077,94.364a3.447,3.447,0,0,1-1.275,2.874,5.773,5.773,0,0,1-3.649,1.006h-1.447v4.839h-1.431v-12.3h3.19Q192.078,90.778,192.077,94.364Zm-6.371,2.651h1.288a4.782,4.782,0,0,0,2.752-.615,2.265,2.265,0,0,0,.85-1.969,2.122,2.122,0,0,0-.8-1.818,4.171,4.171,0,0,0-2.491-.6h-1.6Z"/>
        <path class="e" d="M195.515,103.083v-12.3h1.43v12.3Z"/>
        <path class="e" d="M203.885,98.244a1.993,1.993,0,0,1-1.877-2.138V93.623q0-1.624-1.911-1.675v-1.17a3.722,3.722,0,0,1,2.437.732,2.476,2.476,0,0,1,.888,2.02v2.576a1.418,1.418,0,0,0,.5,1.2,2.694,2.694,0,0,0,1.591.4v1.187a2.691,2.691,0,0,0-1.557.375,1.422,1.422,0,0,0-.53,1.249v2.551a2.472,2.472,0,0,1-.863,2.007,3.808,3.808,0,0,1-2.462.736v-1.178a2.322,2.322,0,0,0,1.423-.4,1.5,1.5,0,0,0,.488-1.246v-2.5a2.094,2.094,0,0,1,.463-1.465,2.428,2.428,0,0,1,1.414-.673Z"/>
      </g>
    </g>
    <g>
      <circle class="d" cx="99.677" cy="110.954" r="7.773"/>
      <path class="d" d="M97.312,103.529v-3.488a2.371,2.371,0,0,1,2.365-2.364h0a2.371,2.371,0,0,1,2.364,2.364v3.488"/>
      <line class="d" x1="79.884" y1="164.307" x2="96.435" y2="117.994"/>
      <line class="d" x1="119.244" y1="164.586" x2="102.694" y2="118.272"/>
      <path class="d" d="M124.457,135.85a36.124,36.124,0,0,1-49.621-.018"/>
      <line class="d" x1="99.646" y1="140.95" x2="99.646" y2="150.148"/>
    </g>
  </g>
</svg>
