<svg xmlns="http://www.w3.org/2000/svg" width="300" height="300" viewBox="0 0 300 300">
  <defs>
    <style>
      .a, .c {
        fill: #4a494d;
      }

      .a {
        opacity: 0.07;
      }

      .b, .d, .e, .f, .g, .h, .i {
        fill: none;
        stroke-miterlimit: 10;
      }

      .b, .d, .e, .f, .h, .i {
        stroke: #4a494d;
      }

      .b, .d, .f, .g, .h {
        stroke-linecap: round;
      }

      .b, .h, .i {
        opacity: 0.4;
      }

      .d {
        stroke-width: 0.75px;
      }

      .f, .h {
        stroke-width: 1.5px;
      }

      .g {
        stroke: #515050;
      }

      .h {
        stroke-dasharray: 0 4;
      }
    </style>
  </defs>
  <title>SW</title>
  <rect class="a" x="34.578" y="138.821" width="264.324" height="31.333" rx="15.667" ry="15.667"/>
  <path class="b" d="M74.105,59.264h15.3A7.115,7.115,0,0,1,96.5,66.358l-.016,45.269a7.091,7.091,0,0,1-7.09,7.087H27.754a7.114,7.114,0,0,1-7.094-7.094V66.358a7.115,7.115,0,0,1,7.094-7.094h15.6"/>
  <g>
    <path class="c" d="M36.155,101.3a1.272,1.272,0,0,0,.421,1.064,2.028,2.028,0,0,0,1.234.346v1.007a3.315,3.315,0,0,1-2.116-.626,2.1,2.1,0,0,1-.748-1.721v-2.18a1.214,1.214,0,0,0-.453-1.068,2.264,2.264,0,0,0-1.318-.321V96.787a2.246,2.246,0,0,0,1.353-.346,1.221,1.221,0,0,0,.418-1.021v-2.2a2.09,2.09,0,0,1,.777-1.735,3.262,3.262,0,0,1,2.087-.619v1q-1.654.043-1.655,1.434V95.42a1.7,1.7,0,0,1-1.605,1.828v.086a1.7,1.7,0,0,1,1.605,1.828Z"/>
    <path class="c" d="M47.857,101.386l-1.31-3.347H42.33l-1.3,3.347H39.8l4.16-10.566h1.029l4.139,10.566Zm-1.691-4.449-1.224-3.26q-.237-.618-.489-1.519A13.678,13.678,0,0,1,44,93.677l-1.238,3.26Z"/>
    <path class="c" d="M57.243,93.929a2.944,2.944,0,0,1-1.091,2.457,4.926,4.926,0,0,1-3.12.862H51.794v4.138H50.571V90.863H53.3Q57.242,90.863,57.243,93.929ZM51.794,96.2h1.1a4.1,4.1,0,0,0,2.354-.525,1.94,1.94,0,0,0,.727-1.686,1.818,1.818,0,0,0-.684-1.555,3.585,3.585,0,0,0-2.13-.509H51.794Z"/>
    <path class="c" d="M59.445,101.386V90.863h1.224v10.523Z"/>
    <path class="c" d="M63.45,97.982v-1.1h3.534v1.1Z"/>
    <path class="c" d="M76.776,101.386H75.387l-2.829-4.628-2.879,4.628h-1.3l3.5-5.5-3.26-5.023h1.353l2.613,4.168,2.634-4.168h1.3l-3.261,4.98Z"/>
    <path class="c" d="M82.065,97.248A1.7,1.7,0,0,1,80.46,95.42V93.3q0-1.392-1.634-1.434v-1a3.181,3.181,0,0,1,2.084.627,2.114,2.114,0,0,1,.759,1.727v2.2a1.213,1.213,0,0,0,.425,1.025,2.3,2.3,0,0,0,1.36.342V97.8a2.294,2.294,0,0,0-1.332.321,1.214,1.214,0,0,0-.453,1.068v2.18a2.114,2.114,0,0,1-.738,1.717,3.257,3.257,0,0,1-2.105.63v-1.007a1.984,1.984,0,0,0,1.216-.346,1.279,1.279,0,0,0,.418-1.064V99.162a1.793,1.793,0,0,1,.4-1.252,2.07,2.07,0,0,1,1.21-.576Z"/>
  </g>
  <path class="d" d="M69.493,70.051a54.41,54.41,0,0,0-5.189-2.1s-1.951-.509-1.9-2.029c.006-.181,0-1.549,0-1.549a13.005,13.005,0,0,0,1.308-3.187,2.744,2.744,0,0,0,1.743-2.057c.508-1.913-.689-2.5-.689-2.5V52.683c0-1.809-.38-3.016-2.026-3.016a3.789,3.789,0,0,0-3.134-1.2c-2.078,0-3.018,1.2-4.973,1.2-.864,0-.89,1.438-.888,2.989,0,1.625,0,3.976,0,3.976s-1.2.588-.689,2.5A2.742,2.742,0,0,0,54.8,61.19,12.985,12.985,0,0,0,56.1,64.377v1.549c0,1.175-1.764,1.982-1.764,1.982a54.517,54.517,0,0,0-5.189,2.1"/>
  <g>
    <path class="c" d="M239.488,100.967a1.273,1.273,0,0,0,.421,1.064,2.028,2.028,0,0,0,1.234.346v1.007a3.321,3.321,0,0,1-2.116-.625,2.1,2.1,0,0,1-.748-1.721V98.857a1.215,1.215,0,0,0-.453-1.068,2.27,2.27,0,0,0-1.317-.321V96.453a2.236,2.236,0,0,0,1.352-.345,1.223,1.223,0,0,0,.418-1.022v-2.2a2.092,2.092,0,0,1,.778-1.736,3.257,3.257,0,0,1,2.086-.619v1q-1.655.042-1.655,1.433v2.123a1.7,1.7,0,0,1-1.6,1.828V97a1.7,1.7,0,0,1,1.6,1.829Z"/>
    <path class="c" d="M251.19,101.052l-1.309-3.346h-4.218l-1.3,3.346h-1.238l4.16-10.566h1.029l4.139,10.566ZM249.5,96.6l-1.224-3.261q-.237-.618-.489-1.518a13.583,13.583,0,0,1-.453,1.518L246.1,96.6Z"/>
    <path class="c" d="M260.576,93.6a2.943,2.943,0,0,1-1.091,2.458,4.932,4.932,0,0,1-3.12.861h-1.237v4.138H253.9V90.529h2.728Q260.577,90.529,260.576,93.6Zm-5.448,2.268h1.1a4.094,4.094,0,0,0,2.354-.525,1.937,1.937,0,0,0,.727-1.685,1.819,1.819,0,0,0-.683-1.555,3.579,3.579,0,0,0-2.131-.51h-1.367Z"/>
    <path class="c" d="M262.778,101.052V90.529H264v10.523Z"/>
    <path class="c" d="M266.783,97.648V96.553h3.534v1.095Z"/>
    <path class="c" d="M279.482,101.052h-7.233V100.1l5.586-8.464h-5.413v-1.1h6.9v.958l-5.585,8.457h5.743Z"/>
    <path class="c" d="M284.567,96.914a1.7,1.7,0,0,1-1.605-1.828V92.963q0-1.39-1.634-1.433v-1a3.18,3.18,0,0,1,2.084.627,2.117,2.117,0,0,1,.759,1.728v2.2a1.21,1.21,0,0,0,.425,1.025,2.291,2.291,0,0,0,1.36.342v1.015a2.3,2.3,0,0,0-1.331.321,1.213,1.213,0,0,0-.454,1.068v2.181a2.117,2.117,0,0,1-.737,1.717,3.262,3.262,0,0,1-2.106.629v-1.007a1.989,1.989,0,0,0,1.217-.346,1.28,1.28,0,0,0,.417-1.064V98.829a1.8,1.8,0,0,1,.4-1.253,2.082,2.082,0,0,1,1.21-.576Z"/>
  </g>
  <path class="d" d="M273.11,70.593a54.554,54.554,0,0,0-5.2-2.1s-1.954-.509-1.907-2.033c.006-.181,0-1.552,0-1.552a13,13,0,0,0,1.31-3.194,2.746,2.746,0,0,0,1.747-2.061c.509-1.916-.69-2.506-.69-2.506V53.189c0-1.812-.381-3.022-2.031-3.022a3.793,3.793,0,0,0-3.14-1.207c-2.082,0-3.024,1.207-4.983,1.207-.866,0-.892,1.441-.89,2.995,0,1.628,0,3.984,0,3.984s-1.2.59-.69,2.506a2.747,2.747,0,0,0,1.746,2.061,13,13,0,0,0,1.31,3.194v1.552c0,1.178-1.768,1.987-1.768,1.987a54.715,54.715,0,0,0-5.2,2.1"/>
  <g>
    <path class="c" d="M137.772,101.3a1.273,1.273,0,0,0,.421,1.064,2.033,2.033,0,0,0,1.235.346v1.008a3.33,3.33,0,0,1-2.117-.626,2.1,2.1,0,0,1-.748-1.721V99.189a1.215,1.215,0,0,0-.453-1.068,2.268,2.268,0,0,0-1.317-.32V96.785a2.236,2.236,0,0,0,1.352-.345,1.223,1.223,0,0,0,.418-1.022v-2.2a2.092,2.092,0,0,1,.778-1.736,3.26,3.26,0,0,1,2.087-.619v1q-1.656.042-1.656,1.433v2.123a1.7,1.7,0,0,1-1.6,1.828v.086a1.7,1.7,0,0,1,1.6,1.829Z"/>
    <path class="c" d="M149.475,101.384l-1.31-3.346h-4.218l-1.3,3.346h-1.238l4.16-10.566H146.6l4.139,10.566Zm-1.692-4.448-1.224-3.26q-.237-.62-.489-1.519a13.658,13.658,0,0,1-.453,1.519l-1.238,3.26Z"/>
    <path class="c" d="M158.86,93.927a2.943,2.943,0,0,1-1.091,2.458,4.932,4.932,0,0,1-3.12.861h-1.237v4.138h-1.224V90.861h2.728Q158.861,90.861,158.86,93.927ZM153.412,96.2h1.1a4.09,4.09,0,0,0,2.353-.525,1.938,1.938,0,0,0,.728-1.685,1.82,1.82,0,0,0-.684-1.555,3.579,3.579,0,0,0-2.131-.51h-1.367Z"/>
    <path class="c" d="M161.062,101.384V90.861h1.224v10.523Z"/>
    <path class="c" d="M165.067,97.98V96.885H168.6V97.98Z"/>
    <path class="c" d="M174.067,96.123l2.807-5.262H178.2L174.686,97.3v4.081h-1.238V97.361l-3.5-6.5h1.339Z"/>
    <path class="c" d="M183.431,97.246a1.7,1.7,0,0,1-1.606-1.828V93.3q0-1.391-1.634-1.433v-1a3.18,3.18,0,0,1,2.084.627,2.117,2.117,0,0,1,.759,1.728v2.2a1.212,1.212,0,0,0,.425,1.025,2.291,2.291,0,0,0,1.36.342V97.8a2.3,2.3,0,0,0-1.331.32,1.213,1.213,0,0,0-.454,1.068v2.181a2.117,2.117,0,0,1-.737,1.717,3.266,3.266,0,0,1-2.106.63v-1.008a1.987,1.987,0,0,0,1.217-.346,1.28,1.28,0,0,0,.417-1.064V99.161a1.791,1.791,0,0,1,.4-1.253,2.079,2.079,0,0,1,1.21-.576Z"/>
  </g>
  <path class="d" d="M151.171,68.744a24.459,24.459,0,0,1,4.622-1.938c1.433-.512,1.474-.828,1.474-1.919v-.766a12.661,12.661,0,0,1-5.013-1.653s2.123-2.068,2.123-7.072c0-4.028,2.754-6.658,5.839-6.712l.429-.014c3.084.054,5.838,2.685,5.838,6.713,0,5,2.123,7.072,2.123,7.072a12.653,12.653,0,0,1-5.013,1.653v.766c0,1.091.041,1.406,1.475,1.919a24.389,24.389,0,0,1,4.622,1.938"/>
  <g>
    <path class="e" d="M6.107,145.26q-2.652.07-2.652,2.294v4.329c0,1.652-.693,2.686-2.163,2.928v.138a2.629,2.629,0,0,1,2.163,2.928v4.352a2.04,2.04,0,0,0,.674,1.706,3.257,3.257,0,0,0,1.978.553"/>
    <g>
      <path class="c" d="M8.824,155.122a.768.768,0,0,1,.157-.524.571.571,0,0,1,.452-.178.61.61,0,0,1,.467.178.737.737,0,0,1,.168.524.72.72,0,0,1-.171.516.675.675,0,0,1-.9.018A.7.7,0,0,1,8.824,155.122Z"/>
      <path class="c" d="M13.251,155.122a.768.768,0,0,1,.157-.524.57.57,0,0,1,.452-.178.61.61,0,0,1,.467.178.741.741,0,0,1,.167.524.72.72,0,0,1-.17.516.608.608,0,0,1-.464.181.616.616,0,0,1-.437-.163A.706.706,0,0,1,13.251,155.122Z"/>
      <path class="c" d="M17.677,155.122a.769.769,0,0,1,.158-.524.569.569,0,0,1,.451-.178.607.607,0,0,1,.467.178.737.737,0,0,1,.168.524.725.725,0,0,1-.17.516.676.676,0,0,1-.9.018A.706.706,0,0,1,17.677,155.122Z"/>
    </g>
    <path class="e" d="M21.589,164.488q2.652-.069,2.652-2.294v-4.329c0-1.652.692-2.685,2.162-2.927V154.8a2.628,2.628,0,0,1-2.162-2.928V147.52a2.04,2.04,0,0,0-.675-1.707,3.252,3.252,0,0,0-1.977-.553"/>
  </g>
  <polyline class="f" points="51.677 154.747 56.024 159.094 65.63 149.488"/>
  <polyline class="f" points="153.894 154.753 158.241 159.1 167.847 149.494"/>
  <polyline class="f" points="256.477 154.917 260.824 159.264 270.431 149.658"/>
  <g>
    <path class="g" d="M143.012,192.534a14.236,14.236,0,0,0-1.82-.107h-1.665c-3.069,0-4.319.676-5.573,1.856-2.56,0-2.594,1.859-2.594,4.645v6.082a3.632,3.632,0,0,0-1.275,3.1,4.3,4.3,0,0,0,3.06,3.924,8.982,8.982,0,0,0,3.266,6.388v1.816c0,1.811-.068,2.335-2.448,3.186a79.038,79.038,0,0,0-10.246,4.166"/>
    <path class="g" d="M146.792,223.1c-1.19-.62-1.251-1.248-1.251-2.678v-2.385"/>
    <path class="g" d="M170.689,218.485c.774.182,2.708.553,3.6.661v1.271c0,1.524-.065,2.137-1.5,2.8"/>
    <path class="g" d="M194.2,226.82c-1.977-1.09-2.653-1.422-7.673-3.217-2.38-.851-2.447-1.375-2.447-3.186v-1.271A21.011,21.011,0,0,0,192.4,216.4s-3.524-3.432-3.524-11.74c0-6.686-4.572-11.053-9.692-11.143-2.652-.047-3.473.5-5.388,1.322"/>
    <path class="g" d="M130.3,238.38a11.679,11.679,0,0,1,2.3-4.427c1.781-1.966,5.88-4.06,15.82-7.647,0,0,3.731-1.706,3.731-4.191v-3.274a27.43,27.43,0,0,1-2.765-6.738c-1.257-.313-2.981-1.7-3.684-4.349-1.075-4.043,1.456-5.287,1.456-5.287s0-4.97,0-8.405c0-3.278.052-6.318,1.879-6.318,4.132,0,6.12-2.547,10.512-2.547,2.951,0,5.7,1,6.625,2.547,3.481,0,4.283,2.551,4.283,6.375v8.348s2.531,1.244,1.457,5.287c-.7,2.646-2.427,4.036-3.685,4.349a27.453,27.453,0,0,1-2.764,6.738v3.274c0,2.485.872,3.2,4.108,4.373l10.392,3.766"/>
  </g>
  <g>
    <path class="e" d="M186.3,234.517q-2.427.065-2.427,2.1v3.962c0,1.512-.633,2.458-1.979,2.679v.127a2.4,2.4,0,0,1,1.979,2.679v3.983a1.866,1.866,0,0,0,.618,1.562,2.965,2.965,0,0,0,1.809.506"/>
    <g>
      <path class="c" d="M188.706,243.543a.706.706,0,0,1,.144-.48.525.525,0,0,1,.413-.163.561.561,0,0,1,.428.163.678.678,0,0,1,.153.48.665.665,0,0,1-.155.472.619.619,0,0,1-.825.017A.648.648,0,0,1,188.706,243.543Z"/>
      <path class="c" d="M192.758,243.543a.706.706,0,0,1,.144-.48.523.523,0,0,1,.413-.163.559.559,0,0,1,.427.163.674.674,0,0,1,.154.48.66.66,0,0,1-.156.472.618.618,0,0,1-.824.017A.644.644,0,0,1,192.758,243.543Z"/>
      <path class="c" d="M196.809,243.543a.706.706,0,0,1,.144-.48.525.525,0,0,1,.413-.163.561.561,0,0,1,.428.163.678.678,0,0,1,.153.48.665.665,0,0,1-.155.472.619.619,0,0,1-.825.017A.648.648,0,0,1,196.809,243.543Z"/>
    </g>
    <path class="e" d="M200.466,252.115q2.427-.063,2.427-2.1v-3.962c0-1.512.633-2.458,1.979-2.68v-.127a2.4,2.4,0,0,1-1.979-2.679v-3.983a1.862,1.862,0,0,0-.618-1.561,2.965,2.965,0,0,0-1.809-.507"/>
  </g>
  <g>
    <path class="h" d="M62.789,177.793a58.694,58.694,0,0,0,53.368,34.242"/>
    <line class="h" x1="56.574" y1="133.821" x2="56.574" y2="122.955"/>
  </g>
  <line class="h" x1="263.305" y1="133.155" x2="263.305" y2="122.955"/>
  <line class="h" x1="159.574" y1="133.029" x2="159.574" y2="122.932"/>
  <line class="h" x1="159.574" y1="178.718" x2="159.574" y2="172.621"/>
  <path class="h" d="M259.847,177.081a58.7,58.7,0,0,1-53.69,34.954"/>
  <line class="i" x1="20.741" y1="76.244" x2="96.499" y2="76.244"/>
  <line class="i" x1="122.025" y1="76.244" x2="197.313" y2="76.244"/>
  <line class="i" x1="223.813" y1="76.244" x2="298.48" y2="76.244"/>
  <path class="b" d="M175.438,59.264h15.3a7.116,7.116,0,0,1,7.094,7.094l-.017,45.269a7.09,7.09,0,0,1-7.09,7.087H129.087a7.115,7.115,0,0,1-7.094-7.094V66.358a7.116,7.116,0,0,1,7.094-7.094h15.6"/>
  <path class="b" d="M276.772,59.264h15.3a7.115,7.115,0,0,1,7.094,7.094l-.017,45.269a7.09,7.09,0,0,1-7.09,7.087H230.421a7.114,7.114,0,0,1-7.094-7.094V66.358a7.115,7.115,0,0,1,7.094-7.094h15.6"/>
</svg>
