<svg xmlns="http://www.w3.org/2000/svg" width="300" height="300" viewBox="0 0 300 300">
  <defs>
    <style>
      .a, .e, .g {
        opacity: 0.4;
      }

      .b, .c, .d, .e, .f, .g, .h, .j, .m {
        fill: none;
      }

      .b, .c, .d, .e, .f, .g, .h, .i, .j {
        stroke: #4a494d;
      }

      .b, .c, .d, .e, .f, .g, .h, .i, .j, .m {
        stroke-miterlimit: 10;
      }

      .c, .d, .e, .f, .g, .h, .m {
        stroke-linecap: round;
      }

      .d, .g {
        stroke-width: 0.75px;
      }

      .f, .m {
        stroke-width: 1.25px;
      }

      .h {
        stroke-width: 1.5px;
        stroke-dasharray: 0 4;
      }

      .i {
        fill: #fff;
      }

      .i, .j {
        stroke-width: 0.9px;
      }

      .k {
        fill: #4a494d;
      }

      .l {
        opacity: 0.5;
      }

      .m {
        stroke: #494949;
      }
    </style>
  </defs>
  <title>SW</title>
  <g>
    <g class="a">
      <path class="b" d="M163.862,173.694V92.541a6.093,6.093,0,0,0-12.185,0v81.153a6.093,6.093,0,1,1,6.092,6.092H36.99a6.093,6.093,0,1,1,6.092-6.092V92.541a6.092,6.092,0,0,0-12.184,0v81.153"/>
      <line class="c" x1="49.559" y1="95.181" x2="89.754" y2="95.181"/>
      <line class="d" x1="134.421" y1="95.181" x2="145.925" y2="95.181"/>
    </g>
    <g>
      <circle class="c" cx="113.768" cy="57.415" r="6.774"/>
      <path class="c" d="M111.707,50.945v-3.04a2.067,2.067,0,0,1,2.061-2.06h0a2.066,2.066,0,0,1,2.06,2.06v3.04"/>
      <line class="c" x1="96.52" y1="103.908" x2="110.943" y2="63.549"/>
      <line class="c" x1="130.819" y1="104.15" x2="116.397" y2="63.792"/>
      <path class="c" d="M135.362,79.11a31.48,31.48,0,0,1-43.241-.016"/>
      <line class="c" x1="113.741" y1="83.554" x2="113.741" y2="91.569"/>
    </g>
  </g>
  <g>
    <line class="e" x1="72.153" y1="117.449" x2="93.122" y2="117.449"/>
    <line class="f" x1="100.421" y1="117.449" x2="127.103" y2="117.449"/>
    <line class="e" x1="137.006" y1="126.975" x2="89.935" y2="126.975"/>
    <line class="e" x1="84.719" y1="126.975" x2="69.071" y2="126.975"/>
    <line class="e" x1="118.174" y1="136.481" x2="68.857" y2="136.481"/>
    <line class="e" x1="78.833" y1="148.991" x2="101.673" y2="148.991"/>
    <line class="g" x1="107.317" y1="148.991" x2="125.608" y2="148.991"/>
    <line class="e" x1="114.209" y1="158.746" x2="68.921" y2="158.746"/>
  </g>
  <line class="e" x1="58.937" y1="117.449" x2="66.709" y2="117.449"/>
  <line class="e" x1="58.513" y1="148.991" x2="73.231" y2="148.991"/>
  <line class="h" x1="97.087" y1="107.551" x2="97.087" y2="117.652"/>
  <line class="h" x1="130.089" y1="107.551" x2="130.089" y2="117.652"/>
  <g>
    <g>
      <path class="i" d="M269.024,240.621a13.546,13.546,0,0,1-13.546,13.534H137.829a13.586,13.586,0,0,1-13.547-13.546V154.178a13.586,13.586,0,0,1,13.547-13.546H255.556A13.586,13.586,0,0,1,269.1,154.178Z"/>
      <line class="j" x1="124.437" y1="175.055" x2="269.102" y2="175.055"/>
    </g>
    <g>
      <line class="g" x1="163.931" y1="189.858" x2="187.813" y2="189.858"/>
      <line class="f" x1="193.753" y1="189.858" x2="225.375" y2="189.858"/>
      <line class="g" x1="237.793" y1="200.707" x2="184.182" y2="200.707"/>
      <line class="g" x1="178.242" y1="200.707" x2="160.42" y2="200.707"/>
      <line class="g" x1="216.344" y1="211.533" x2="160.177" y2="211.533"/>
      <line class="g" x1="171.539" y1="225.781" x2="197.551" y2="225.781"/>
      <line class="g" x1="203.979" y1="225.781" x2="224.811" y2="225.781"/>
      <line class="g" x1="211.829" y1="236.891" x2="160.25" y2="236.891"/>
    </g>
    <line class="g" x1="148.878" y1="189.858" x2="157.73" y2="189.858"/>
    <line class="g" x1="148.396" y1="225.781" x2="165.158" y2="225.781"/>
    <g>
      <path class="k" d="M142.691,164.8a1.555,1.555,0,0,0,.515,1.3,2.475,2.475,0,0,0,1.506.422v1.23a4.05,4.05,0,0,1-2.584-.764,2.563,2.563,0,0,1-.914-2.1v-2.663a1.485,1.485,0,0,0-.553-1.3,2.774,2.774,0,0,0-1.609-.391v-1.24a2.737,2.737,0,0,0,1.653-.422,1.494,1.494,0,0,0,.509-1.248v-2.689a2.554,2.554,0,0,1,.95-2.118,3.974,3.974,0,0,1,2.548-.756v1.222q-2.02.053-2.021,1.749v2.592a2.081,2.081,0,0,1-1.96,2.233v.1a2.081,2.081,0,0,1,1.96,2.233Z"/>
      <path class="k" d="M156.081,164.905l-1.6-4.087h-5.15l-1.582,4.087h-1.512l5.08-12.9h1.257l5.054,12.9Zm-2.066-5.432-1.494-3.982q-.289-.755-.6-1.854a16.41,16.41,0,0,1-.553,1.854l-1.512,3.982Z"/>
      <path class="k" d="M168.441,155.8a3.6,3.6,0,0,1-1.332,3,6.03,6.03,0,0,1-3.81,1.05h-1.511v5.054h-1.494v-12.85h3.331Q168.442,152.055,168.441,155.8Zm-6.653,2.769h1.344a4.991,4.991,0,0,0,2.874-.642,2.365,2.365,0,0,0,.888-2.057,2.216,2.216,0,0,0-.835-1.9,4.36,4.36,0,0,0-2.6-.624h-1.67Z"/>
      <path class="k" d="M172.031,164.905v-12.85h1.494v12.85Z"/>
      <path class="k" d="M180.77,159.851a2.081,2.081,0,0,1-1.96-2.233v-2.592q0-1.7-2-1.749v-1.222a3.886,3.886,0,0,1,2.545.765,2.588,2.588,0,0,1,.927,2.109v2.689a1.484,1.484,0,0,0,.518,1.253,2.812,2.812,0,0,0,1.661.417v1.24a2.812,2.812,0,0,0-1.626.391,1.485,1.485,0,0,0-.553,1.3v2.663a2.58,2.58,0,0,1-.9,2.1,3.971,3.971,0,0,1-2.57.769v-1.23a2.426,2.426,0,0,0,1.485-.422,1.561,1.561,0,0,0,.51-1.3v-2.61a2.186,2.186,0,0,1,.484-1.53,2.544,2.544,0,0,1,1.476-.7Z"/>
    </g>
  </g>
  <g class="l">
    <path class="f" d="M141.98,111.611a36.891,36.891,0,0,1,29.228-14.446h0A37,37,0,0,1,208.1,134.06h0"/>
    <polyline class="m" points="202.861 130.001 208.1 134.469 212.541 129.346"/>
  </g>
</svg>
