<svg xmlns="http://www.w3.org/2000/svg" width="300" height="300" viewBox="0 0 300 300">
  <defs>
    <style>
      .a, .e {
        fill: #fff;
      }

      .a, .b, .c, .e, .f, .g, .j {
        stroke: #4a494d;
        stroke-miterlimit: 10;
      }

      .a {
        stroke-width: 0.9px;
      }

      .b, .c, .f, .g, .j {
        fill: none;
      }

      .b, .c, .g, .j {
        stroke-linecap: round;
      }

      .b, .g {
        stroke-width: 0.75px;
      }

      .b, .h, .j {
        opacity: 0.4;
      }

      .c {
        stroke-width: 1.25px;
      }

      .d, .i {
        fill: #4a494d;
      }

      .i {
        opacity: 0.1;
      }

      .j {
        stroke-width: 1.5px;
        stroke-dasharray: 0 5;
        fill-rule: evenodd;
      }
    </style>
  </defs>
  <title>SW</title>
  <g>
    <path class="a" d="M9.189,270.849V44.906A17.333,17.333,0,0,1,26.471,27.624H174.312a17.333,17.333,0,0,1,17.282,17.282V270.015"/>
    <line class="a" x1="9.49" y1="71.268" x2="190.882" y2="71.268"/>
    <line class="b" x1="80.251" y1="96.525" x2="129.545" y2="96.525"/>
    <line class="b" x1="129.27" y1="110.807" x2="80.388" y2="110.807"/>
    <line class="b" x1="74.04" y1="110.807" x2="54.213" y2="110.807"/>
    <line class="b" x1="113.807" y1="124.818" x2="71.999" y2="124.818"/>
    <line class="c" x1="75.3" y1="141.203" x2="130.37" y2="141.203"/>
    <line class="c" x1="116.659" y1="154.336" x2="49.723" y2="154.336"/>
    <line class="b" x1="40.869" y1="96.525" x2="73.65" y2="96.525"/>
    <line class="c" x1="40.749" y1="141.203" x2="68.734" y2="141.203"/>
    <g>
      <path class="d" d="M92.227,271.206a1.7,1.7,0,0,1,.349-1.162,1.268,1.268,0,0,1,1-.395,1.354,1.354,0,0,1,1.035.395,1.635,1.635,0,0,1,.372,1.162,1.607,1.607,0,0,1-.377,1.144,1.5,1.5,0,0,1-2,.04A1.564,1.564,0,0,1,92.227,271.206Z"/>
      <path class="d" d="M101.157,271.206a1.7,1.7,0,0,1,.349-1.162,1.266,1.266,0,0,1,1-.395,1.355,1.355,0,0,1,1.036.395,1.635,1.635,0,0,1,.372,1.162,1.607,1.607,0,0,1-.377,1.144,1.5,1.5,0,0,1-2,.04A1.568,1.568,0,0,1,101.157,271.206Z"/>
      <path class="d" d="M110.086,271.206a1.7,1.7,0,0,1,.35-1.162,1.265,1.265,0,0,1,1-.395,1.356,1.356,0,0,1,1.036.395,1.635,1.635,0,0,1,.371,1.162,1.6,1.6,0,0,1-.377,1.144,1.5,1.5,0,0,1-2,.04A1.564,1.564,0,0,1,110.086,271.206Z"/>
    </g>
    <g>
      <g>
        <path class="e" d="M245.159,124.785a9.2,9.2,0,0,1-9.2,9.2H156.016a9.232,9.232,0,0,1-9.2-9.2V66.05a9.232,9.232,0,0,1,9.2-9.2h79.992a9.232,9.232,0,0,1,9.2,9.2Z"/>
        <line class="f" x1="146.916" y1="81.076" x2="245.212" y2="81.076"/>
      </g>
      <line class="b" x1="214.768" y1="113.272" x2="163.041" y2="113.272"/>
      <line class="b" x1="171.126" y1="121.12" x2="191.33" y2="121.12"/>
      <line class="b" x1="195.697" y1="121.12" x2="223.868" y2="121.12"/>
      <g>
        <path class="d" d="M155.845,73.608a1.126,1.126,0,0,0,.373.944,1.8,1.8,0,0,0,1.095.307v.893a2.936,2.936,0,0,1-1.876-.555,1.857,1.857,0,0,1-.664-1.525V71.738a1.078,1.078,0,0,0-.4-.947,2.016,2.016,0,0,0-1.168-.284v-.9a1.988,1.988,0,0,0,1.2-.306,1.086,1.086,0,0,0,.37-.906V66.442a1.857,1.857,0,0,1,.689-1.538,2.888,2.888,0,0,1,1.851-.548v.886q-1.468.039-1.468,1.27V68.4a1.511,1.511,0,0,1-1.423,1.621v.076a1.511,1.511,0,0,1,1.423,1.621Z"/>
        <path class="d" d="M165.566,73.685,164.4,70.717h-3.739l-1.148,2.968h-1.1l3.689-9.368h.912l3.669,9.368Zm-1.5-3.944-1.085-2.89q-.211-.549-.435-1.347a12.051,12.051,0,0,1-.4,1.347l-1.1,2.89Z"/>
        <path class="d" d="M174.54,67.074a2.611,2.611,0,0,1-.967,2.179,4.379,4.379,0,0,1-2.766.763h-1.1v3.669h-1.085V64.356h2.419Q174.541,64.356,174.54,67.074Zm-4.83,2.01h.976a3.625,3.625,0,0,0,2.087-.466,1.717,1.717,0,0,0,.644-1.493,1.609,1.609,0,0,0-.606-1.378,3.168,3.168,0,0,0-1.889-.453H169.71Z"/>
        <path class="d" d="M177.147,73.685V64.356h1.085v9.329Z"/>
        <path class="d" d="M180.7,70.667V69.7h3.133v.971Z"/>
        <path class="d" d="M189.582,73.685h-1.034V67.036c0-.553.018-1.077.051-1.57-.089.089-.189.183-.3.281s-.616.512-1.518,1.244l-.562-.728,2.47-1.907h.893Z"/>
        <path class="d" d="M196.476,70.016a1.511,1.511,0,0,1-1.423-1.621V66.512q0-1.23-1.448-1.27v-.886a2.821,2.821,0,0,1,1.847.555,1.875,1.875,0,0,1,.673,1.531V68.4a1.076,1.076,0,0,0,.377.909,2.032,2.032,0,0,0,1.206.3v.9a2.044,2.044,0,0,0-1.181.284,1.078,1.078,0,0,0-.4.947v1.934a1.874,1.874,0,0,1-.654,1.522,2.883,2.883,0,0,1-1.866.558v-.893a1.759,1.759,0,0,0,1.078-.307,1.131,1.131,0,0,0,.37-.944v-1.9a1.586,1.586,0,0,1,.351-1.11,1.837,1.837,0,0,1,1.072-.511Z"/>
      </g>
      <g>
        <line class="g" x1="184.1" y1="93.676" x2="219.356" y2="93.676"/>
        <line class="g" x1="211.116" y1="101.292" x2="171.023" y2="101.292"/>
        <line class="g" x1="163.038" y1="93.768" x2="179.8" y2="93.768"/>
        <line class="g" x1="223.373" y1="93.676" x2="232.536" y2="93.676"/>
      </g>
    </g>
    <g class="h">
      <line class="g" x1="79.701" y1="169.498" x2="124.932" y2="169.498"/>
      <line class="g" x1="131.777" y1="169.498" x2="153.475" y2="169.498"/>
      <line class="g" x1="135.261" y1="184.446" x2="79.838" y2="184.446"/>
      <line class="g" x1="73.49" y1="184.446" x2="53.663" y2="184.446"/>
      <line class="g" x1="113.257" y1="198.291" x2="71.449" y2="198.291"/>
      <line class="g" x1="40.319" y1="169.498" x2="73.1" y2="169.498"/>
    </g>
    <line class="c" x1="56.68" y1="211.798" x2="82.954" y2="211.798"/>
    <line class="c" x1="90.52" y1="211.798" x2="147.881" y2="211.798"/>
    <line class="c" x1="156.058" y1="227.108" x2="79.71" y2="227.108"/>
    <line class="c" x1="73.174" y1="227.108" x2="53.567" y2="227.108"/>
    <line class="c" x1="114.345" y1="242.383" x2="52.549" y2="242.383"/>
    <line class="c" x1="40.119" y1="211.798" x2="49.857" y2="211.798"/>
    <g>
      <g>
        <path class="e" d="M290.749,197.653a10.87,10.87,0,0,1-10.87,10.86h-94.4a10.9,10.9,0,0,1-10.869-10.87v-69.35a10.9,10.9,0,0,1,10.869-10.869h94.463a10.9,10.9,0,0,1,10.869,10.869Z"/>
        <line class="f" x1="174.734" y1="143.439" x2="290.811" y2="143.439"/>
      </g>
      <line class="g" x1="206.423" y1="156.922" x2="225.585" y2="156.922"/>
      <line class="g" x1="231.103" y1="156.922" x2="265.806" y2="156.922"/>
      <line class="g" x1="275.769" y1="165.627" x2="222.673" y2="165.627"/>
      <line class="g" x1="217.906" y1="165.627" x2="203.606" y2="165.627"/>
      <line class="g" x1="248.479" y1="174.313" x2="203.411" y2="174.313"/>
      <line class="b" x1="212.527" y1="185.746" x2="233.4" y2="185.746"/>
      <line class="b" x1="238.557" y1="185.746" x2="251.955" y2="185.746"/>
      <line class="b" x1="244.856" y1="194.66" x2="203.47" y2="194.66"/>
      <line class="g" x1="194.345" y1="156.922" x2="201.448" y2="156.922"/>
      <line class="b" x1="193.958" y1="185.746" x2="207.408" y2="185.746"/>
      <g>
        <path class="d" d="M184.938,135.97a1.2,1.2,0,0,0,.4,1.009,1.91,1.91,0,0,0,1.169.328v.954a3.146,3.146,0,0,1-2-.593,1.987,1.987,0,0,1-.709-1.63v-2.066a1.153,1.153,0,0,0-.43-1.013,2.153,2.153,0,0,0-1.248-.3V131.7a2.142,2.142,0,0,0,1.283-.328,1.162,1.162,0,0,0,.4-.968v-2.087a1.981,1.981,0,0,1,.736-1.643,3.086,3.086,0,0,1,1.978-.587v.948q-1.569.041-1.568,1.357V130.4a1.615,1.615,0,0,1-1.521,1.732v.082a1.614,1.614,0,0,1,1.521,1.732Z"/>
        <path class="d" d="M195.326,136.052l-1.241-3.171h-4l-1.228,3.171h-1.172l3.941-10.011h.975l3.921,10.011Zm-1.6-4.214-1.159-3.089q-.227-.586-.464-1.439a12.837,12.837,0,0,1-.43,1.439l-1.173,3.089Z"/>
        <path class="d" d="M204.917,128.987a2.8,2.8,0,0,1-1.033,2.329,4.683,4.683,0,0,1-2.957.815h-1.172v3.921H198.6v-9.97h2.585Q204.916,126.082,204.917,128.987Zm-5.162,2.148H200.8a3.879,3.879,0,0,0,2.23-.5,1.833,1.833,0,0,0,.689-1.595,1.72,1.72,0,0,0-.648-1.473,3.384,3.384,0,0,0-2.019-.484h-1.3Z"/>
        <path class="d" d="M207.7,136.052v-9.97h1.159v9.97Z"/>
        <path class="d" d="M211.5,132.826V131.79h3.348v1.036Z"/>
        <path class="d" d="M223.351,136.052H216.8v-.975l2.625-2.639a19.359,19.359,0,0,0,1.583-1.732,4.471,4.471,0,0,0,.573-1.01,2.893,2.893,0,0,0,.191-1.057,1.678,1.678,0,0,0-.485-1.265,1.854,1.854,0,0,0-1.343-.467,3.359,3.359,0,0,0-1.176.2,4.68,4.68,0,0,0-1.238.743l-.6-.77a4.593,4.593,0,0,1,3-1.146,3.173,3.173,0,0,1,2.2.719,2.474,2.474,0,0,1,.8,1.933,3.728,3.728,0,0,1-.532,1.876,11.933,11.933,0,0,1-1.991,2.346l-2.183,2.134V135h5.129Z"/>
        <path class="d" d="M228.359,132.131a1.615,1.615,0,0,1-1.521-1.732v-2.012q0-1.315-1.547-1.357v-.948a3.017,3.017,0,0,1,1.974.593,2.008,2.008,0,0,1,.719,1.637V130.4a1.148,1.148,0,0,0,.4.971,2.186,2.186,0,0,0,1.289.325v.961a2.182,2.182,0,0,0-1.261.3,1.153,1.153,0,0,0-.43,1.013v2.066a2,2,0,0,1-.7,1.627,3.09,3.09,0,0,1-1.994.6v-.954a1.874,1.874,0,0,0,1.152-.328,1.209,1.209,0,0,0,.395-1.009v-2.025a1.7,1.7,0,0,1,.375-1.187,1.974,1.974,0,0,1,1.146-.545Z"/>
      </g>
    </g>
    <path class="i" d="M275.662,158.136h-2.716a7.336,7.336,0,0,0-7.186-8.8H193.88a7.335,7.335,0,0,0,0,14.67H196.6a7.274,7.274,0,0,0,1.339,5.867,7.276,7.276,0,0,0-1.487,4.4,7.356,7.356,0,0,0,7.335,7.335h48.162a7.331,7.331,0,0,0,7.186-8.8h16.532a7.335,7.335,0,0,0,0-14.669Z"/>
    <path class="i" d="M234.571,88.044h-72.18a5.752,5.752,0,0,0,0,11.5h2.3a5.643,5.643,0,0,0-.288,1.7A5.768,5.768,0,0,0,170.155,107H213.3a5.768,5.768,0,0,0,5.751-5.751,5.643,5.643,0,0,0-.288-1.7h15.807a5.752,5.752,0,0,0,0-11.5Z"/>
    <g>
      <path class="f" d="M91.642,38.663q-3.1.083-3.1,2.685v5.067c0,1.934-.811,3.143-2.531,3.427V50c1.607.279,2.531,1.493,2.531,3.426v5.094a2.386,2.386,0,0,0,.789,2,3.8,3.8,0,0,0,2.315.647"/>
      <g>
        <path class="d" d="M94.724,50.206a.9.9,0,0,1,.185-.613.668.668,0,0,1,.528-.209.715.715,0,0,1,.547.209.862.862,0,0,1,.2.613.846.846,0,0,1-.2.6.793.793,0,0,1-1.054.021A.826.826,0,0,1,94.724,50.206Z"/>
        <path class="d" d="M99.906,50.206a.9.9,0,0,1,.184-.613.669.669,0,0,1,.529-.209.713.713,0,0,1,.546.209.862.862,0,0,1,.2.613.846.846,0,0,1-.2.6.793.793,0,0,1-1.054.021A.826.826,0,0,1,99.906,50.206Z"/>
        <path class="d" d="M105.087,50.206a.9.9,0,0,1,.184-.613.669.669,0,0,1,.529-.209.717.717,0,0,1,.547.209.866.866,0,0,1,.2.613.851.851,0,0,1-.2.6.795.795,0,0,1-1.055.021A.826.826,0,0,1,105.087,50.206Z"/>
      </g>
      <path class="f" d="M109.763,61.168q3.1-.081,3.1-2.684V53.417c0-1.934.811-3.143,2.531-3.427v-.162c-1.607-.279-2.531-1.493-2.531-3.427V41.308a2.386,2.386,0,0,0-.789-2,3.809,3.809,0,0,0-2.315-.648"/>
    </g>
    <path class="j" d="M214.82,190.015c-.706,50.812-51.288,74.969-91.039,59.987"/>
    <path class="j" d="M126.834,158.61c13.79,2.619,26.993-4.716,28.46-20.283"/>
  </g>
</svg>
